<svg width="167" height="30" viewBox="0 0 167 30" fill="none" xmlns="http://www.w3.org/2000/svg">
<path d="M0.266797 29V3.224H18.5908C28.5988 3.224 34.1788 7.832 34.1788 16.112C34.1788 24.392 28.5988 29 18.5908 29H0.266797ZM9.4108 22.628H17.2948C22.2628 22.628 25.0708 20.288 25.0708 16.112C25.0708 11.936 22.2628 9.56 17.2948 9.56H9.4108V22.628ZM52.8409 9.812C56.9809 9.812 59.8249 13.016 60.1129 17.984L52.3369 19.496C52.1929 16.724 50.9689 14.96 49.2049 14.96C46.7929 14.96 45.3529 17.192 45.3529 20.72V29H36.8209V10.424H43.9129L45.0649 14.708H45.1009C46.4689 11.684 49.4929 9.812 52.8409 9.812ZM66.2793 8.444C63.5433 8.444 61.5633 6.716 61.5633 4.268C61.5633 1.82 63.5433 0.127998 66.2793 0.127998C69.0153 0.127998 70.9953 1.82 70.9953 4.268C70.9953 6.716 69.0153 8.444 66.2793 8.444ZM62.0313 29V10.424H70.5273V29H62.0313ZM73.0911 29V23.348L86.9151 15.392H73.4511V10.424H97.5351V16.076L83.4591 23.996H97.8951V29H73.0911ZM99.8802 29V23.348L113.704 15.392H100.24V10.424H124.324V16.076L110.248 23.996H124.684V29H99.8802ZM142.405 29.576C132.829 29.576 126.349 25.724 126.349 19.676C126.349 13.88 132.361 9.812 140.965 9.812C149.425 9.812 155.005 13.736 155.005 19.712C155.005 20.252 154.933 21.044 154.753 21.656H135.313C136.285 23.816 139.525 24.68 143.017 24.68C146.689 24.68 150.397 23.888 152.305 22.808L154.645 26.84C152.125 28.46 147.373 29.576 142.405 29.576ZM135.169 18.02H146.437C146.329 15.896 143.881 14.456 140.893 14.456C137.833 14.456 135.493 15.932 135.169 18.02ZM157.547 29V2.144H166.079V29H157.547Z" fill="white"/>
</svg>
